<?xml version="1.0" standalone="no"?>
<!DOCTYPE svg PUBLIC "-//W3C//DTD SVG 20010904//EN"
 "http://www.w3.org/TR/2001/REC-SVG-20010904/DTD/svg10.dtd">
<svg version="1.0" xmlns="http://www.w3.org/2000/svg"
 width="500.000000pt" height="500.000000pt" viewBox="0 0 500.000000 500.000000"
 preserveAspectRatio="xMidYMid meet">
<metadata>
Created by potrace 1.11, written by Peter Selinger 2001-2013
</metadata>
<g transform="translate(0.000000,500.000000) scale(0.100000,-0.100000)"
fill="#000000" stroke="none">
<path d="M3270 4990 c-62 -9 -303 -30 -675 -60 -344 -28 -340 -28 -525 -40
-454 -30 -540 -39 -589 -65 -54 -28 -57 -47 -21 -130 11 -26 18 -69 19 -125 1
-47 6 -100 12 -117 6 -18 11 -52 12 -76 2 -46 2 -46 50 -2 62 57 76 64 31 15
-254 -275 -353 -521 -324 -810 6 -58 15 -119 19 -135 8 -30 7 -32 -32 -44 -42
-13 -86 -32 -195 -83 -163 -77 -373 -363 -438 -597 -18 -64 -22 -68 -29 -30
-10 51 -76 75 -138 50 -44 -17 -78 -63 -58 -75 5 -3 9 -16 9 -28 0 -13 7 -66
17 -118 9 -52 19 -117 22 -145 3 -27 8 -53 12 -57 11 -12 71 -17 100 -8 28 8
29 7 36 -38 12 -83 73 -255 119 -335 90 -158 167 -227 351 -317 207 -100 314
-127 560 -141 88 -5 170 -9 182 -9 18 0 25 -9 34 -43 29 -110 85 -157 153
-131 29 11 16 21 -24 18 -35 -2 -43 2 -64 29 -32 42 -51 90 -37 95 6 2 11 10
11 18 0 8 7 14 15 14 8 0 15 -6 15 -12 0 -26 48 -72 86 -83 21 -6 39 -16 38
-23 -1 -7 -2 -31 -3 -54 -1 -40 -5 -45 -44 -64 -29 -15 -45 -31 -52 -52 -6
-17 -18 -39 -26 -49 -9 -10 -28 -58 -44 -108 -15 -49 -38 -117 -52 -149 l-24
-59 20 -20 20 -21 -84 -90 c-97 -105 -105 -113 -298 -301 -119 -117 -172 -160
-320 -259 -97 -65 -177 -120 -177 -122 0 -2 513 -4 1140 -4 627 0 1140 4 1140
8 0 22 -177 201 -270 273 -30 23 -104 92 -165 153 -60 61 -132 132 -160 157
-27 24 -62 58 -76 74 -42 49 -307 295 -406 379 -95 79 -106 99 -87 150 8 22
20 20 79 -8 27 -14 77 -35 109 -47 33 -13 102 -52 154 -87 52 -35 122 -77 156
-94 33 -17 81 -48 106 -69 29 -25 56 -39 74 -39 34 0 72 -19 166 -85 41 -28
89 -54 106 -58 17 -3 69 -24 115 -45 118 -55 130 -58 84 -18 -39 33 -43 56 -8
41 28 -11 116 -13 130 -2 7 5 19 7 27 4 8 -3 16 -1 18 4 2 5 19 11 39 12 26 2
44 11 66 35 32 35 83 67 83 52 0 -4 -6 -10 -12 -13 -7 -2 -9 -8 -5 -13 5 -5
17 2 28 16 44 57 49 64 49 72 0 4 11 19 26 33 14 14 23 29 19 34 -3 5 -1 12 5
16 5 3 15 16 21 28 11 19 8 18 -20 -6 -18 -15 -37 -25 -42 -21 -5 3 -9 0 -9
-6 0 -6 -5 -8 -12 -4 -7 5 -9 2 -5 -9 4 -11 -1 -18 -16 -23 -12 -3 -31 -14
-41 -23 -15 -13 -18 -13 -11 -1 7 12 6 13 -6 4 -8 -6 -28 -11 -46 -12 l-31 -2
3 85 c2 47 0 85 -5 85 -5 0 -8 -14 -8 -30 1 -17 -2 -33 -5 -37 -4 -3 -7 2 -7
12 0 14 -3 15 -15 5 -9 -8 -13 -21 -9 -36 9 -34 -3 -30 -26 8 l-20 33 -6 -32
c-6 -29 -7 -30 -32 -17 -17 9 -31 10 -43 3 -25 -13 -29 -12 -29 8 0 15 -1 15
-13 -1 -12 -17 -14 -17 -20 -3 -3 9 -2 19 3 22 17 10 11 33 -7 31 -11 -2 -18
-11 -17 -24 1 -11 -5 -23 -12 -26 -9 -3 -11 0 -7 12 6 14 5 15 -9 2 -9 -8 -14
-17 -13 -20 2 -3 0 -12 -5 -20 -6 -9 -11 7 -16 48 -3 34 -10 59 -15 56 -5 -3
-9 4 -9 16 0 12 -4 18 -10 15 -6 -3 -10 -1 -10 5 0 6 -5 8 -12 4 -8 -5 -9 -2
-4 12 12 31 12 36 -2 41 -7 3 -13 -1 -11 -8 1 -8 0 -25 -1 -39 l-2 -25 -9 27
c-6 15 -16 25 -23 22 -7 -3 -13 2 -13 11 0 9 6 14 14 11 14 -6 17 12 4 32 -6
10 -10 10 -20 -2 -7 -8 -20 -12 -28 -9 -10 4 -14 2 -9 -5 3 -6 1 -14 -5 -18
-8 -4 -9 -3 -5 4 4 7 1 12 -6 13 -7 0 -3 5 10 11 29 14 29 31 0 22 -19 -6 -21
-4 -11 7 12 14 13 19 13 44 0 8 5 15 10 15 7 0 7 -6 1 -18 -7 -13 -6 -23 1
-30 20 -20 28 -13 22 17 -5 22 -1 32 21 49 l26 21 -40 -3 c-22 -1 -49 -10 -59
-19 -25 -22 -31 -21 -25 4 4 16 8 17 14 7 6 -9 9 -7 9 8 0 12 7 27 15 34 19
16 19 30 0 30 -13 0 -14 4 -5 20 8 15 8 20 -3 20 -7 0 -14 -13 -15 -31 -2 -19
2 -28 8 -24 5 3 10 3 10 -2 0 -9 -48 -33 -66 -33 -22 0 -26 -20 -9 -48 16 -26
16 -26 -9 2 -13 16 -27 49 -31 73 -3 24 -10 41 -15 38 -5 -3 -7 -18 -4 -33 3
-19 2 -23 -5 -13 -5 8 -16 11 -25 8 -9 -4 -15 -1 -13 6 1 7 -8 11 -23 9 -22
-2 -23 -1 -7 9 10 6 25 8 33 5 16 -6 20 39 4 49 -5 3 -10 -1 -10 -10 0 -13 -2
-13 -14 -3 -10 10 -11 15 -1 23 7 5 15 19 19 30 6 16 5 17 -5 8 -10 -10 -15
-9 -26 5 -7 9 -13 13 -12 7 3 -23 -2 -25 -25 -9 -17 10 -23 21 -19 32 6 15 4
15 -10 4 -14 -12 -16 -11 -14 7 1 12 5 21 9 21 4 0 8 7 8 15 0 8 -5 15 -11 15
-5 0 -7 -5 -3 -12 4 -7 3 -8 -4 -4 -7 4 -12 18 -12 32 0 15 -6 24 -15 24 -8 0
-15 -9 -15 -19 0 -11 -5 -23 -10 -26 -6 -4 -10 -3 -9 2 1 4 1 14 0 22 -1 11
-4 11 -18 0 -15 -12 -16 -12 -10 3 3 10 2 20 -3 23 -6 4 -10 12 -10 18 0 7 4
6 10 -3 8 -12 10 -9 10 13 0 31 -7 34 -26 9 -11 -14 -14 -14 -14 -2 -4 50 -36
124 -50 115 -3 -2 -5 12 -5 30 1 19 -2 32 -6 29 -4 -2 -9 -1 -12 3 -2 5 -2 1
0 -7 7 -27 10 -135 3 -116 -6 18 -7 18 -13 2 -4 -10 -5 -22 -1 -27 3 -5 0 -9
-5 -9 -6 0 -11 5 -11 11 0 6 -7 17 -15 25 -14 14 -19 11 -16 -9 0 -4 -3 -7 -9
-7 -5 0 -8 -6 -6 -12 1 -7 1 -10 -1 -5 -3 4 -8 5 -12 3 -4 -3 -6 11 -6 30 1
19 -2 34 -7 34 -4 0 -8 9 -8 20 0 11 -7 23 -15 26 -8 4 -12 10 -9 15 3 5 1 9
-4 9 -5 0 -12 9 -15 20 -3 11 -1 18 4 15 5 -4 6 9 4 27 -4 26 -3 29 4 13 8
-17 10 -17 10 -3 1 9 -4 20 -9 23 -7 4 -7 12 0 25 5 10 10 28 10 39 0 24 10
27 30 9 8 -7 5 -1 -8 13 -26 30 -29 47 -5 28 10 -7 15 -9 11 -5 -4 5 -2 16 5
24 10 13 9 15 -4 10 -13 -5 -18 1 -21 28 -2 19 0 34 4 34 4 0 7 6 6 13 -2 6 3
11 11 9 11 -2 12 0 4 10 -6 7 -14 28 -18 46 -3 18 -10 30 -13 28 -10 -6 -6 64
4 72 4 4 4 -2 0 -13 -7 -18 -5 -18 14 3 12 12 26 20 31 16 5 -3 15 -1 22 4 7
5 19 9 27 10 8 0 29 2 45 5 17 4 75 13 130 22 303 48 380 68 438 116 39 32 56
77 78 204 7 39 18 76 25 84 16 18 94 32 116 20 9 -5 39 -56 66 -113 27 -57 59
-113 70 -124 57 -57 407 -18 519 59 l43 30 9 -23 c5 -13 10 -31 12 -41 3 -15
18 -5 72 48 37 37 67 76 67 86 0 10 6 19 13 19 7 0 27 16 44 35 37 41 41 42
45 13 2 -12 9 -23 16 -26 18 -6 14 29 -5 44 -17 12 -17 14 1 31 17 17 18 17
13 1 -4 -10 -2 -18 4 -18 6 0 9 9 6 20 -6 22 35 94 122 215 198 276 287 438
340 620 46 162 33 334 -35 432 -40 59 -77 85 -144 103 -58 15 -420 16 -520 1
-41 -6 -97 -14 -125 -16 -27 -3 -86 -11 -130 -19 -90 -17 -153 -20 -100 -6 17
4 48 11 69 15 29 5 36 9 25 16 -8 5 -26 9 -41 9 -20 0 -32 8 -43 30 -20 39
-19 49 10 93 25 36 78 67 116 67 26 0 88 -39 126 -79 34 -36 39 -50 24 -66 -5
-6 -5 -19 -1 -30 5 -11 9 -15 9 -9 1 5 15 9 33 8 38 -3 60 5 52 18 -4 6 2 5
14 -1 23 -12 101 -12 117 0 6 4 14 8 19 8 6 0 11 11 13 23 1 13 7 58 12 101 6
51 6 116 -1 185 -6 59 -8 168 -5 242 3 74 2 168 0 208 l-6 72 -451 -1 c-248
-1 -476 -5 -506 -9z m-910 -164 c30 -8 100 -31 155 -51 55 -20 119 -43 141
-50 60 -19 157 -65 151 -71 -3 -3 -20 2 -39 12 -32 17 -221 86 -340 125 -91
29 -147 33 -227 15 -133 -30 -212 -76 -410 -235 -51 -42 -107 -87 -124 -101
l-32 -25 25 32 c14 18 30 32 35 33 14 1 48 50 35 51 -5 1 -14 3 -20 4 -5 1
-15 3 -21 4 -5 0 -7 5 -4 11 3 6 -1 7 -10 4 -11 -5 -18 0 -22 14 -3 14 -11 19
-21 15 -10 -2 -5 5 11 17 15 12 27 28 27 35 0 30 134 70 162 48 22 -17 108
-16 126 1 29 25 154 83 217 100 113 29 115 30 185 12z m558 -222 c26 -15 59
-35 74 -46 16 -10 34 -16 40 -12 7 4 10 3 5 -1 -4 -5 16 -33 45 -62 66 -67 54
-69 -20 -2 -32 28 -90 71 -129 96 -40 25 -73 47 -73 49 0 8 12 3 58 -22z m232
-194 c0 -5 -2 -10 -4 -10 -3 0 -8 5 -11 10 -3 6 -1 10 4 10 6 0 11 -4 11 -10z
m51 -47 l24 -26 -27 19 c-15 10 -28 22 -28 27 0 12 5 8 31 -20z m110 -78 c64
-47 116 -98 142 -138 28 -44 15 -41 -29 5 -21 23 -61 58 -87 79 -26 21 -46 40
-45 41 2 2 -13 19 -32 37 -42 40 -24 31 51 -24z m338 -209 c-2 -2 -26 -7 -54
-10 l-50 -6 50 13 c46 12 65 13 54 3z m-65 -441 c14 -10 40 -43 58 -74 43 -73
108 -219 113 -251 6 -37 42 -190 54 -229 10 -33 10 -33 -19 -29 -16 2 -27 1
-24 -4 3 -4 -4 -8 -16 -8 -13 0 -19 4 -14 11 4 7 1 10 -7 7 -8 -3 -14 -9 -14
-14 -1 -23 -26 -53 -40 -48 -8 4 -15 1 -15 -5 0 -6 -3 -10 -7 -9 -14 2 -73
-28 -67 -35 3 -3 -3 -5 -15 -4 -13 1 -20 6 -17 14 3 7 0 13 -7 13 -20 0 16 20
36 20 11 0 15 -4 11 -12 -4 -7 -3 -8 5 -4 20 13 0 28 -30 22 -18 -3 -29 -1
-29 6 0 6 -8 4 -18 -5 -10 -10 -23 -17 -29 -17 -6 0 -13 -7 -17 -15 -3 -8 -9
-15 -13 -14 -22 4 -34 -3 -47 -28 -16 -32 -127 -109 -177 -123 -48 -14 -104
-12 -144 4 -19 8 -55 18 -80 21 -25 4 -45 11 -45 15 0 5 -10 12 -22 16 -13 4
-34 15 -47 25 -26 21 -56 26 -45 8 4 -8 1 -8 -13 0 -11 5 -28 10 -39 10 -10 0
-36 2 -56 4 -22 3 -35 1 -32 -4 5 -9 -2 -13 -48 -23 -16 -4 -28 -11 -28 -17 0
-6 5 -7 10 -4 6 3 10 1 10 -4 0 -15 -27 -14 -32 1 -4 10 -10 10 -31 1 -16 -8
-27 -9 -27 -3 0 6 -5 10 -11 10 -5 0 -7 -6 -4 -12 4 -7 0 -5 -8 5 -17 21 -39
23 -31 2 4 -8 2 -15 -4 -15 -13 0 -10 17 7 50 14 24 13 25 -6 8 -11 -10 -24
-18 -29 -18 -6 0 -20 -9 -33 -21 -12 -11 -28 -19 -35 -16 -7 3 -18 -4 -24 -14
-13 -20 -32 -26 -32 -9 0 15 -47 80 -54 73 -3 -4 -6 -14 -6 -24 0 -12 -5 -16
-15 -13 -11 5 -13 2 -8 -12 4 -12 3 -15 -5 -10 -7 4 -12 2 -12 -4 0 -6 -4 -9
-9 -6 -9 6 1 -64 13 -82 10 -16 -50 3 -70 22 -8 9 -17 16 -19 16 -8 0 16 -55
27 -61 6 -4 -6 -6 -25 -6 -31 1 -37 5 -42 29 -4 15 -20 39 -36 52 -30 26 -37
50 -17 62 8 5 9 0 6 -14 -4 -12 -2 -20 3 -17 11 8 6 65 -6 65 -5 0 -5 4 2 8 6
4 17 20 22 35 6 16 7 26 1 22 -14 -8 -4 53 12 73 11 13 11 15 -2 7 -8 -4 3 12
25 36 22 23 31 37 20 29 -11 -8 -23 -19 -26 -24 -4 -4 -9 -4 -12 1 -8 12 38
65 48 55 5 -4 5 -2 2 4 -9 16 69 98 84 88 8 -5 10 -3 4 6 -4 7 -4 15 1 19 5 3
17 20 26 36 11 20 25 30 41 31 13 0 30 5 38 12 55 46 77 61 83 55 3 -3 6 1 6
10 0 10 6 18 13 19 6 0 17 2 23 2 14 2 44 32 44 45 0 10 22 16 44 12 5 -1 12
2 15 6 20 28 317 143 370 143 10 0 34 6 53 14 47 20 185 44 287 51 47 3 86 7
88 9 7 7 161 -42 187 -59z m-1557 -632 c-3 -10 -5 -4 -5 12 0 17 2 24 5 18 2
-7 2 -21 0 -30z m26 7 c3 -11 1 -18 -4 -14 -5 3 -9 12 -9 20 0 20 7 17 13 -6z
m1671 -5 c-4 -8 -8 -15 -10 -15 -2 0 -4 7 -4 15 0 8 4 15 10 15 5 0 7 -7 4
-15z m286 -25 c0 -5 -9 -10 -21 -10 -11 0 -17 5 -14 10 3 6 13 10 21 10 8 0
14 -4 14 -10z m-226 -72 c23 -85 39 -128 46 -128 5 0 16 13 24 28 47 90 74 46
51 -84 -10 -57 -11 -92 -5 -109 5 -14 12 -25 14 -25 3 0 15 14 27 32 19 26 24
50 29 137 l7 106 1 -103 c1 -69 -3 -114 -12 -137 -8 -18 -11 -37 -8 -41 4 -4
2 -4 -5 0 -7 4 -30 -2 -52 -13 -90 -46 -210 -74 -328 -75 -108 -1 -113 0 -137
24 -27 29 -61 114 -71 182 -9 63 9 118 38 118 21 -1 21 -1 -3 -15 -24 -13 -24
-14 -5 -21 11 -4 23 -11 26 -16 3 -5 13 0 23 11 17 19 18 19 44 -10 25 -28 29
-29 62 -18 41 14 60 34 60 66 0 16 6 23 19 23 11 0 22 -4 25 -9 7 -11 66 -20
71 -10 3 4 14 5 26 2 20 -6 20 -5 6 30 -14 32 -14 36 1 43 14 6 13 8 -8 14
l-25 8 28 1 c15 1 29 -5 31 -11z m-354 -35 c-19 -8 -48 -24 -65 -36 -26 -18
-28 -19 -15 -3 15 19 86 56 105 55 6 0 -6 -7 -25 -16z m20 -31 c0 -13 -12 -22
-22 -16 -10 6 -1 24 13 24 5 0 9 -4 9 -8z m-866 -26 c-17 -8 -34 -21 -37 -30
-7 -17 -37 -22 -37 -6 0 6 5 10 11 10 6 0 22 9 36 20 14 11 33 20 42 20 9 -1
2 -7 -15 -14z m294 -13 c-10 -2 -28 -2 -40 0 -13 2 -5 4 17 4 22 1 32 -1 23
-4z m-241 -9 c-3 -3 -12 -4 -19 -1 -8 3 -5 6 6 6 11 1 17 -2 13 -5z m128 -5
c-22 -4 -51 -8 -65 -7 -23 0 -22 1 5 8 17 4 46 8 65 8 l35 0 -40 -9z m-115
-19 c-14 -4 -34 -8 -45 -8 l-20 -1 20 9 c11 5 31 8 45 8 l25 0 -25 -8z m275 1
c-12 -11 -145 -20 -145 -10 0 4 14 7 30 7 17 -1 33 2 37 5 3 4 24 7 47 7 24 0
36 -4 31 -9z m292 3 c-3 -3 -12 -4 -19 -1 -8 3 -5 6 6 6 11 1 17 -2 13 -5z
m-650 -20 c-3 -3 -12 -4 -19 -1 -8 3 -5 6 6 6 11 1 17 -2 13 -5z m393 -19 c6
-4 8 -15 5 -26 -5 -15 -3 -17 11 -12 11 4 15 2 11 -4 -4 -6 2 -8 16 -6 32 6
47 -27 50 -110 2 -63 3 -66 14 -40 7 15 12 21 12 13 1 -28 -36 -96 -63 -118
-15 -11 -43 -26 -62 -32 -19 -6 -32 -16 -28 -21 3 -6 -6 -7 -23 -4 -22 5 -25
4 -13 -5 12 -9 6 -10 -25 -5 -29 4 -36 3 -25 -5 11 -8 6 -9 -23 -6 -20 3 -35
1 -32 -3 6 -10 -79 -21 -162 -21 -85 0 -139 23 -162 69 -38 75 -56 231 -26
231 11 0 12 -5 5 -25 -6 -17 -6 -25 1 -25 6 0 7 -5 3 -12 -5 -8 0 -9 17 -5 13
4 29 7 35 7 7 0 11 8 10 17 0 10 7 19 18 21 10 2 16 0 12 -6 -3 -5 0 -12 8
-15 10 -4 12 0 8 15 -3 13 -1 19 5 15 6 -4 23 0 39 7 19 10 33 12 45 5 10 -5
38 -9 62 -9 37 0 46 4 55 25 7 14 12 35 12 45 0 27 39 26 73 0 14 -11 35 -20
47 -20 11 0 18 -4 15 -10 -3 -6 4 -10 17 -10 l23 1 -23 19 -23 19 25 7 c14 3
26 10 26 15 0 5 -7 5 -17 2 -11 -4 -14 -3 -9 5 4 7 2 12 -3 12 -6 0 -11 4 -11
9 0 10 32 7 50 -4z m-220 1 c0 -2 -11 -6 -25 -8 -14 -3 -25 -1 -25 3 0 5 11 9
25 9 14 0 25 -2 25 -4z m-65 -16 c-3 -5 -11 -10 -16 -10 -6 0 -7 5 -4 10 3 6
11 10 16 10 6 0 7 -4 4 -10z m-150 -20 c3 -5 2 -10 -4 -10 -5 0 -13 5 -16 10
-3 6 -2 10 4 10 5 0 13 -4 16 -10z m1575 -14 c0 -3 -4 -8 -10 -11 -5 -3 -10
-1 -10 4 0 6 5 11 10 11 6 0 10 -2 10 -4z m-1570 -50 c0 -3 -4 -8 -10 -11 -5
-3 -10 -1 -10 4 0 6 5 11 10 11 6 0 10 -2 10 -4z m557 -48 c-3 -8 -6 -5 -6 6
-1 11 2 17 5 13 3 -3 4 -12 1 -19z m-748 -26 c15 -11 34 -47 52 -97 l28 -80
-25 -25 -25 -25 10 28 c17 45 14 59 -10 52 -18 -6 -20 -4 -14 14 5 17 3 20
-12 14 -10 -3 -15 -3 -11 1 3 4 -2 16 -13 27 -21 21 -26 44 -6 34 6 -4 3 1 -8
9 -11 9 -25 14 -31 12 -7 -3 -15 2 -18 10 -5 12 -1 14 15 9 14 -5 19 -3 15 3
-3 6 0 13 6 15 7 3 3 6 -9 7 -38 4 -41 5 -50 14 -15 15 81 -5 106 -22z m-1762
-4 c-3 -8 -6 -5 -6 6 -1 11 2 17 5 13 3 -3 4 -12 1 -19z m-10 -120 c-2 -13 -4
-5 -4 17 -1 22 1 32 4 23 2 -10 2 -28 0 -40z m0 -65 c-3 -10 -5 -4 -5 12 0 17
2 24 5 18 2 -7 2 -21 0 -30z m2423 22 c-14 -8 -32 -14 -40 -14 -8 0 -1 6 15
14 40 18 57 18 25 0z m-558 -40 c0 -5 -5 -11 -11 -13 -6 -2 -11 4 -11 13 0 9
5 15 11 13 6 -2 11 -8 11 -13z m33 -25 c3 -5 -3 -10 -14 -10 -12 0 -21 5 -21
10 0 6 6 10 14 10 8 0 18 -4 21 -10z m-561 -196 c7 -19 -2 -37 -15 -29 -12 8
-12 45 0 45 5 0 12 -7 15 -16z m-60 -61 c6 -14 9 -13 29 3 12 10 19 15 15 10
-5 -5 2 -14 15 -20 21 -11 54 -68 60 -103 1 -10 5 -22 9 -28 3 -5 3 -25 1 -43
-15 -95 -212 -37 -238 70 -6 21 -2 30 19 43 14 10 26 26 26 36 0 25 30 59 46
52 7 -2 15 -12 18 -20z m-143 -39 c27 -26 29 -54 3 -54 -13 0 -44 49 -44 70 0
16 12 12 41 -16z m650 -317 c-10 -9 -11 -8 -5 6 3 10 9 15 12 12 3 -3 0 -11
-7 -18z m119 -231 c0 -2 -8 -10 -17 -17 -16 -13 -17 -12 -4 4 13 16 21 21 21
13z m253 -116 c-3 -12 -8 -19 -11 -16 -5 6 5 36 12 36 2 0 2 -9 -1 -20z m237
-150 c0 -5 -4 -10 -10 -10 -5 0 -7 -7 -4 -15 4 -8 1 -15 -5 -15 -12 0 -15 32
-4 43 10 10 23 8 23 -3z m68 -177 l-1 -38 -4 33 c-3 24 -8 32 -19 28 -8 -3
-14 -1 -14 4 0 6 9 10 20 10 17 0 20 -6 18 -37z m52 -67 c0 -3 -4 -8 -10 -11
-5 -3 -10 -1 -10 4 0 6 5 11 10 11 6 0 10 -2 10 -4z m294 -42 c3 -8 2 -12 -4
-9 -6 3 -10 10 -10 16 0 14 7 11 14 -7z m40 -32 c3 -5 -1 -9 -9 -9 -8 0 -12 4
-9 9 3 4 7 8 9 8 2 0 6 -4 9 -8z"/>
<path d="M3558 3013 c7 -3 16 -2 19 1 4 3 -2 6 -13 5 -11 0 -14 -3 -6 -6z"/>
<path d="M2186 2880 c3 -19 11 -39 17 -45 7 -7 8 -4 4 8 -4 9 -2 17 3 17 6 0
10 -7 10 -17 0 -9 3 -13 7 -9 11 11 13 45 3 51 -6 3 -10 1 -10 -6 0 -6 -9 -1
-20 12 l-21 24 7 -35z"/>
<path d="M2133 2799 c11 -22 22 -38 24 -35 5 5 -24 63 -36 70 -4 3 1 -13 12
-35z"/>
<path d="M2585 2540 c27 -12 43 -12 25 0 -8 5 -22 9 -30 9 -10 0 -8 -3 5 -9z"/>
<path d="M4885 4943 c17 -171 25 -313 25 -438 1 -206 56 -1185 69 -1217 6 -16
13 -28 16 -28 3 0 5 392 5 870 l0 870 -60 0 -61 0 6 -57z"/>
<path d="M580 4799 c-283 -21 -530 -38 -548 -38 l-33 -1 1 -506 c1 -506 1
-506 24 -569 13 -34 27 -88 30 -119 3 -31 9 -62 13 -69 8 -14 12 -34 17 -102
4 -52 7 -66 21 -100 8 -19 24 -35 35 -35 3 0 11 10 19 21 11 18 11 23 -1 30
-9 6 -6 9 11 9 22 0 23 3 17 43 -11 75 -5 151 20 226 8 24 12 46 10 49 -3 2 2
19 11 36 10 17 16 34 15 39 -1 4 2 7 7 7 5 0 12 19 16 43 l7 42 16 -41 c10
-23 27 -50 40 -60 17 -14 24 -33 28 -69 6 -58 21 -145 34 -195 18 -70 42 -155
48 -170 9 -23 12 -40 18 -93 5 -39 1 -57 -21 -102 -15 -30 -31 -54 -34 -53
-22 2 -41 -4 -41 -13 0 -6 9 -8 21 -4 12 4 19 3 16 -1 -3 -5 19 -9 48 -9 30 0
51 4 47 9 -3 5 1 7 10 4 35 -14 41 6 44 164 4 133 11 240 28 378 5 41 13 177
22 340 11 235 24 273 103 306 27 11 46 12 90 4 31 -5 123 -14 204 -20 82 -5
155 -14 164 -18 28 -16 64 0 91 41 25 38 27 48 28 161 1 67 7 186 14 266 l12
144 -26 22 c-26 23 -106 45 -154 43 -15 -1 -259 -19 -542 -40z"/>
<path d="M60 3114 c-19 -19 -41 -34 -47 -34 -10 0 -13 -34 -13 -137 l0 -138
47 3 c49 3 123 -20 123 -38 0 -6 5 -10 10 -10 6 0 10 13 10 29 0 18 6 31 18
36 16 6 15 7 -3 18 -18 11 -22 23 -15 52 1 6 2 13 1 17 0 4 15 10 34 14 32 6
62 34 49 46 -2 3 2 11 11 18 17 14 20 30 4 30 -9 0 -92 61 -141 104 -31 27
-52 25 -88 -10z m135 -282 c-11 -11 -34 -10 -38 2 -4 9 3 11 19 8 14 -2 22 -7
19 -10z"/>
<path d="M4994 2915 c0 -49 1 -71 3 -48 2 23 2 64 0 90 -2 26 -3 8 -3 -42z"/>
<path d="M135 2697 c2 -22 7 -43 12 -47 4 -4 36 -5 71 -3 49 4 62 9 62 22 0
28 -42 55 -96 61 l-51 6 2 -39z"/>
<path d="M3000 2175 c0 -52 33 -135 54 -135 7 0 12 -10 10 -22 -1 -13 -3 -30
-3 -38 -1 -11 -4 -11 -12 4 -9 14 -13 16 -20 5 -4 -8 -3 -19 3 -27 6 -7 13
-25 14 -40 2 -22 1 -24 -7 -9 -6 9 -7 23 -3 30 6 9 5 9 -8 0 -8 -7 -18 -10
-22 -6 -4 4 -9 -3 -13 -15 -3 -12 -9 -19 -14 -16 -5 3 -9 1 -9 -5 0 -6 -12 2
-27 17 -25 25 -27 25 -33 7 -4 -11 -6 -23 -3 -27 2 -5 -1 -8 -6 -8 -6 0 -12
10 -12 23 -1 18 -2 18 -6 4 -3 -10 2 -26 10 -35 8 -9 17 -27 19 -39 5 -19 4
-20 -13 -10 -10 6 -19 15 -19 18 0 4 -6 9 -14 12 -15 6 -16 -9 -3 -30 5 -8 4
-13 -2 -13 -6 0 -11 5 -11 10 0 6 -7 10 -15 10 -9 0 -15 6 -14 13 4 32 -1 40
-16 27 -11 -9 -15 -9 -15 -1 0 7 -5 9 -10 6 -6 -4 -8 -11 -4 -16 3 -5 -5 -18
-17 -28 -19 -16 -21 -21 -11 -34 9 -11 10 -17 2 -22 -6 -4 -10 -3 -9 2 3 20
-2 27 -12 13 -8 -11 -9 -6 -4 20 6 33 5 34 -10 16 -14 -19 -15 -19 -15 8 0 17
-4 25 -11 20 -7 -4 -7 1 1 16 11 20 10 22 -4 17 -24 -10 -19 5 14 37 17 16 28
31 26 33 -8 8 -44 -21 -61 -49 -14 -24 -14 -34 -5 -63 6 -19 10 -45 7 -57 -3
-20 -5 -19 -12 10 -10 43 -25 41 -25 -4 0 -19 4 -33 9 -30 5 4 7 -3 4 -14 -3
-11 -1 -26 5 -33 8 -9 7 -29 -2 -69 -7 -32 -9 -62 -5 -70 7 -10 9 -8 9 5 0 10
4 16 8 13 5 -3 8 15 6 40 -2 45 -2 45 14 22 9 -13 15 -27 14 -33 -2 -5 2 -5 9
2 7 7 12 27 12 45 -1 18 1 27 4 20 3 -6 8 -10 11 -8 4 2 7 -20 8 -50 1 -29 -2
-51 -6 -49 -4 2 -4 -13 0 -35 4 -22 4 -40 0 -40 -4 0 -10 -9 -13 -21 -9 -34
17 -16 27 19 5 18 13 32 18 32 5 0 7 -4 4 -8 -3 -5 1 -9 9 -9 8 0 12 4 9 9 -3
5 -7 21 -9 36 -2 15 -2 21 1 14 8 -17 24 -5 24 19 0 21 -16 26 -23 7 -3 -7 -6
-3 -6 9 -1 17 -5 21 -18 16 -12 -5 -14 -3 -7 8 4 8 9 21 9 29 0 8 6 14 13 12
9 -1 8 5 -4 22 -30 48 -3 58 71 26 32 -14 51 -17 59 -11 13 11 39 -1 35 -15
-1 -5 20 -18 47 -29 27 -11 51 -23 52 -27 2 -5 8 -8 13 -8 6 0 7 5 4 10 -6 9
22 15 53 11 6 -1 12 2 12 7 0 15 -37 21 -49 9 -7 -7 -18 -7 -36 1 -19 9 -25
19 -25 42 0 16 5 31 10 31 6 1 18 2 28 3 10 0 26 9 36 19 12 11 33 17 65 17
26 0 52 5 57 10 6 6 42 13 80 16 38 3 87 11 109 19 58 20 165 25 165 8 0 -7 5
-13 11 -13 7 0 9 -10 5 -25 -6 -23 -5 -23 22 -14 16 5 46 30 67 55 53 65 146
98 161 59 5 -11 10 -13 19 -5 6 5 15 7 18 3 4 -3 7 -1 7 5 0 5 -5 12 -12 14
-17 6 0 28 23 28 10 0 19 -6 19 -14 0 -10 7 -12 23 -8 16 4 17 7 6 10 -12 2
-16 15 -15 47 0 49 -9 63 -44 70 -13 2 -34 14 -47 27 -19 18 -25 19 -36 8 -9
-10 -9 -11 1 -6 8 5 12 0 12 -13 0 -22 -14 -28 -25 -11 -4 6 -11 8 -16 5 -5
-4 -9 1 -9 9 0 9 -5 16 -10 16 -7 0 -7 -7 0 -20 6 -11 15 -18 21 -15 5 4 9 1
9 -4 0 -6 15 -11 34 -11 19 0 38 -5 42 -12 5 -8 2 -9 -11 -5 -19 8 -48 -10
-39 -24 3 -5 1 -9 -5 -9 -5 0 -13 5 -16 10 -3 6 -1 10 6 10 20 0 1 14 -21 15
-11 1 -20 -4 -20 -11 0 -20 -30 -9 -48 18 -9 14 -38 44 -65 66 -26 23 -47 44
-47 47 2 43 -9 45 -57 9 -19 -14 -47 -26 -66 -26 -17 0 -39 -4 -48 -9 -10 -5
-39 -2 -74 8 -43 12 -62 14 -75 5 -10 -6 -55 -14 -101 -17 -83 -7 -84 -7 -109
21 -13 16 -26 38 -27 48 -6 39 -13 28 -13 -19z m590 -51 c0 -8 -19 -13 -24 -6
-3 5 1 9 9 9 8 0 15 -2 15 -3z m39 -60 c-13 -16 -23 -19 -14 -5 3 5 1 12 -5
16 -20 12 -10 26 11 15 16 -9 18 -14 8 -26z m-45 -10 c3 -8 2 -12 -4 -9 -6 3
-10 10 -10 16 0 14 7 11 14 -7z m-61 -14 c3 -11 1 -18 -4 -14 -5 3 -9 12 -9
20 0 20 7 17 13 -6z m122 0 c-3 -5 -12 -10 -18 -10 -7 0 -6 4 3 10 19 12 23
12 15 0z m-547 -29 c-7 -9 -13 -17 -14 -19 -1 -2 -1 8 -1 22 0 17 4 23 14 19
11 -4 11 -8 1 -22z m308 7 c4 -7 3 -8 -4 -4 -7 4 -12 2 -12 -5 0 -7 -3 -10 -6
-6 -6 5 3 27 11 27 2 0 7 -5 11 -12z m-50 -10 c4 -6 3 -8 -4 -4 -6 3 -13 -2
-15 -11 -4 -14 -5 -13 -6 5 -1 23 13 30 25 10z m263 -21 c0 -21 -1 -21 -9 -2
-12 28 -12 37 0 30 6 -3 10 -16 9 -28z m-495 -70 c-4 -29 -9 -46 -11 -39 -3 6
-11 12 -19 12 -8 0 -14 8 -14 18 0 14 2 15 10 2 5 -8 12 -11 16 -7 4 4 2 13
-4 19 -7 7 -12 16 -12 22 0 5 7 1 16 -10 14 -18 15 -16 10 26 -5 35 -4 41 5
27 7 -12 8 -38 3 -70z m185 38 c15 -18 15 -19 -1 -6 -16 12 -18 11 -18 -3 0
-10 -5 -14 -10 -11 -11 7 -33 -42 -26 -54 3 -4 -1 -8 -9 -8 -13 0 -13 12 0 52
5 15 3 14 -8 -4 l-14 -23 -1 30 c0 25 3 29 19 25 14 -4 22 2 30 23 8 20 13 25
16 14 3 -8 13 -24 22 -35z m140 0 c11 -14 8 -13 -11 4 -15 13 -24 29 -21 34 4
7 8 6 11 -3 3 -8 12 -24 21 -35z m214 31 c3 3 11 -5 18 -18 11 -21 11 -22 -4
-9 -15 12 -17 11 -17 -3 0 -9 -4 -16 -9 -16 -6 0 -8 9 -6 20 2 11 0 20 -6 20
-5 0 -9 5 -9 11 0 8 4 9 13 0 8 -6 16 -8 20 -5z m-244 -64 c13 -7 32 -10 44
-6 21 6 21 6 4 -13 -18 -20 -93 -50 -102 -41 -10 9 7 38 18 31 6 -3 7 -1 3 6
-4 6 -12 8 -18 5 -8 -5 -9 -1 -3 12 5 10 8 33 7 49 l-1 30 13 -30 c8 -16 23
-36 35 -43z m151 18 c0 -12 -3 -12 -16 2 -9 9 -13 21 -9 28 9 14 25 -5 25 -30z
m-398 -19 c-5 -3 -12 -15 -15 -26 -4 -16 -5 -15 -6 6 -1 29 7 41 21 32 7 -3 7
-8 0 -12z m159 -4 c-10 -9 -11 -8 -5 6 3 10 9 15 12 12 3 -3 0 -11 -7 -18z
m-404 -29 c-3 -7 -5 -2 -5 12 0 14 2 19 5 13 2 -7 2 -19 0 -25z m293 -9 c0 -4
-9 -9 -19 -12 -17 -4 -18 -2 -9 19 8 18 14 21 20 12 4 -7 8 -16 8 -19z m-203
-11 c-3 -7 -5 -2 -5 12 0 14 2 19 5 13 2 -7 2 -19 0 -25z m263 10 c0 -19 -2
-20 -10 -8 -13 19 -13 30 0 30 6 0 10 -10 10 -22z m-280 -23 c0 -12 -7 -25
-15 -29 -16 -6 -18 5 -9 41 8 28 24 20 24 -12z m65 6 c3 -5 1 -12 -5 -16 -5
-3 -10 1 -10 9 0 18 6 21 15 7z m-87 -144 c3 -21 0 -26 -12 -21 -19 7 -22 58
-3 52 6 -3 13 -17 15 -31z m-274 -33 c5 -14 4 -15 -9 -4 -17 14 -19 20 -6 20
5 0 12 -7 15 -16z"/>
<path d="M3802 2178 c22 -21 108 -78 108 -72 0 9 -25 31 -65 58 -39 27 -66 35
-43 14z"/>
<path d="M3690 2061 c0 -5 7 -15 17 -22 15 -13 15 -12 4 9 -12 23 -21 28 -21
13z"/>
<path d="M2749 1993 c-13 -16 -12 -17 4 -4 16 13 21 21 13 21 -2 0 -10 -8 -17
-17z"/>
<path d="M3984 1945 c-3 -14 -4 -34 -1 -45 7 -27 -7 -25 -21 3 -6 12 -11 16
-11 9 -1 -7 4 -23 10 -35 9 -15 9 -22 1 -25 -8 -2 -7 -14 3 -39 9 -20 13 -38
10 -41 -3 -3 -10 9 -16 26 -15 43 -25 40 -25 -5 -1 -21 1 -30 3 -20 8 30 23 8
18 -26 -3 -18 -3 -26 1 -19 8 16 22 15 26 -3 2 -10 8 -12 17 -5 12 7 12 11 2
24 -13 15 -8 21 13 17 9 -2 1 113 -9 129 -3 5 0 19 7 31 10 17 10 23 0 26 -6
3 -10 9 -6 14 3 5 1 9 -5 9 -6 0 -13 -11 -17 -25z m8 -137 c-6 -6 -11 -2 -15
11 -3 12 -1 21 4 21 5 0 10 8 10 18 1 9 4 4 6 -12 3 -16 0 -33 -5 -38z"/>
<path d="M2965 1941 c-3 -5 -2 -12 3 -15 5 -3 9 1 9 9 0 17 -3 19 -12 6z"/>
<path d="M2400 1930 c0 -5 5 -10 11 -10 5 0 7 5 4 10 -3 6 -8 10 -11 10 -2 0
-4 -4 -4 -10z"/>
<path d="M2440 1925 c-10 -12 -10 -15 4 -15 9 0 16 7 16 15 0 8 -2 15 -4 15
-2 0 -9 -7 -16 -15z"/>
<path d="M2712 1885 c0 -16 2 -22 5 -12 2 9 2 23 0 30 -3 6 -5 -1 -5 -18z"/>
<path d="M3790 1896 c0 -2 7 -9 15 -16 9 -7 15 -8 15 -2 0 5 -7 12 -15 16 -8
3 -15 4 -15 2z"/>
<path d="M3882 1870 c-6 -11 -8 -21 -3 -25 5 -3 13 4 16 16 9 28 2 33 -13 9z"/>
<path d="M2745 1859 c-4 -6 -5 -12 -2 -15 2 -3 7 2 10 11 7 17 1 20 -8 4z"/>
<path d="M3906 1732 c-4 -7 -5 -16 -2 -20 2 -4 1 -14 -4 -22 -6 -9 -3 -18 8
-27 11 -8 12 -12 5 -13 -7 0 -13 -8 -13 -17 0 -15 -2 -16 -10 -3 -19 30 -23
-20 -5 -61 21 -45 43 -52 43 -13 0 15 6 30 13 35 11 7 12 12 2 29 -7 11 -13
34 -14 52 -1 44 -13 76 -23 60z m14 -162 c0 -5 -5 -10 -11 -10 -5 0 -7 5 -4
10 3 6 8 10 11 10 2 0 4 -4 4 -10z"/>
<path d="M3160 1690 c0 -5 5 -10 10 -10 6 0 10 5 10 10 0 6 -4 10 -10 10 -5 0
-10 -4 -10 -10z"/>
<path d="M3251 1684 c0 -11 3 -14 6 -6 3 7 2 16 -1 19 -3 4 -6 -2 -5 -13z"/>
<path d="M3950 1671 c-15 -38 -5 -58 18 -35 19 19 22 56 6 61 -6 2 -17 -10
-24 -26z"/>
<path d="M3582 1533 c4 -20 38 -31 38 -13 0 6 -4 8 -10 5 -5 -3 -10 1 -10 9 0
9 -5 16 -11 16 -6 0 -9 -8 -7 -17z"/>
<path d="M3555 1513 c-5 -21 -14 -33 -24 -33 -14 0 -14 -2 -1 -10 10 -6 16 -6
18 0 2 6 10 10 18 10 16 0 17 15 4 45 -7 18 -9 16 -15 -12z"/>
<path d="M3070 1505 c0 -17 32 -65 44 -65 7 0 19 -11 26 -25 15 -28 37 -28 32
0 -2 9 1 14 6 11 14 -8 22 -57 8 -49 -6 3 -4 -2 6 -12 18 -19 40 -12 31 10 -3
9 0 21 6 29 6 7 10 25 9 40 -2 21 -6 25 -21 20 -14 -4 -17 -3 -12 6 6 9 4 11
-4 5 -7 -4 -22 2 -36 15 -24 22 -40 15 -29 -14 9 -23 -18 -20 -38 3 -9 11 -14
22 -11 25 4 3 1 6 -5 6 -7 0 -12 -2 -12 -5z"/>
<path d="M3876 1483 c0 -22 13 -45 15 -27 0 5 2 18 4 30 3 12 -1 21 -8 21 -7
0 -12 -11 -11 -24z"/>
<path d="M2880 1470 c0 -5 5 -10 11 -10 5 0 7 5 4 10 -3 6 -8 10 -11 10 -2 0
-4 -4 -4 -10z"/>
<path d="M3050 1472 c0 -12 19 -26 26 -19 2 2 -2 10 -11 17 -9 8 -15 8 -15 2z"/>
<path d="M2990 1462 c0 -16 28 -34 34 -23 4 6 -3 15 -14 21 -11 6 -20 7 -20 2z"/>
<path d="M3275 1420 c-3 -5 -1 -10 4 -10 6 0 11 5 11 10 0 6 -2 10 -4 10 -3 0
-8 -4 -11 -10z"/>
<path d="M3823 1375 c0 -8 4 -12 9 -9 5 3 6 10 3 15 -9 13 -12 11 -12 -6z"/>
<path d="M2887 1373 c-4 -3 -7 -11 -7 -17 0 -6 5 -5 12 2 6 6 9 14 7 17 -3 3
-9 2 -12 -2z"/>
<path d="M3830 1304 c0 -8 5 -12 10 -9 6 3 10 10 10 16 0 5 -4 9 -10 9 -5 0
-10 -7 -10 -16z"/>
<path d="M3067 1293 c-4 -3 -7 -11 -7 -17 0 -6 5 -5 12 2 6 6 9 14 7 17 -3 3
-9 2 -12 -2z"/>
<path d="M3065 1194 c2 -11 4 -26 5 -34 1 -13 2 -13 7 0 4 8 13 21 22 28 15
12 15 13 0 9 -9 -3 -21 -1 -27 5 -7 7 -10 5 -7 -8z"/>
<path d="M3536 1104 c-8 -21 -6 -23 17 -15 17 6 17 9 4 19 -12 10 -16 9 -21
-4z"/>
<path d="M3466 1101 c-4 -7 -5 -15 -2 -18 9 -9 19 4 14 18 -4 11 -6 11 -12 0z"/>
<path d="M3508 1078 c7 -7 11 -23 11 -37 -1 -21 -2 -22 -6 -6 -3 11 -9 24 -13
29 -12 12 0 -36 13 -51 12 -16 2 -17 -24 -3 -13 7 -19 7 -19 0 0 -5 6 -10 14
-10 8 0 18 -5 22 -11 4 -8 -1 -9 -16 -4 -19 6 -22 4 -17 -9 4 -9 2 -28 -4 -43
-12 -32 -3 -66 11 -43 6 8 10 25 10 37 0 16 4 21 15 17 8 -4 13 -9 10 -13 -2
-4 1 -8 8 -8 14 0 17 48 4 58 -11 8 3 40 14 33 5 -3 9 1 9 10 0 8 3 23 6 33 4
12 3 14 -3 6 -7 -9 -12 -8 -23 7 -8 11 -19 20 -24 20 -6 0 -5 -5 2 -12z"/>
<path d="M3385 1059 c-4 -6 -5 -12 -2 -15 2 -3 7 2 10 11 7 17 1 20 -8 4z"/>
<path d="M3420 1050 c0 -5 5 -10 11 -10 5 0 7 5 4 10 -3 6 -8 10 -11 10 -2 0
-4 -4 -4 -10z"/>
<path d="M3727 1053 c-4 -3 -7 -13 -7 -22 1 -13 3 -13 11 2 11 19 8 33 -4 20z"/>
<path d="M3220 1043 c0 -13 20 -39 21 -28 0 6 5 -1 9 -15 l8 -25 1 27 c1 18
-6 31 -19 38 -11 6 -20 7 -20 3z"/>
<path d="M3566 1026 c-4 -16 -3 -33 2 -38 12 -12 21 21 12 47 -6 17 -8 16 -14
-9z"/>
<path d="M3144 1001 c0 -11 4 -17 8 -15 4 3 8 12 8 20 0 8 -4 14 -8 14 -4 0
-8 -9 -8 -19z"/>
<path d="M3173 1005 c-3 -9 -3 -19 1 -22 3 -4 6 1 6 10 0 8 6 18 13 20 9 4 9
6 -1 6 -7 1 -15 -6 -19 -14z"/>
<path d="M3316 991 c-8 -12 3 -41 15 -41 5 0 9 7 9 16 0 9 -5 12 -12 8 -8 -5
-9 -2 -5 9 7 18 2 23 -7 8z"/>
<path d="M3551 964 c0 -11 3 -14 6 -6 3 7 2 16 -1 19 -3 4 -6 -2 -5 -13z"/>
<path d="M3270 960 c0 -5 5 -10 10 -10 6 0 10 5 10 10 0 6 -4 10 -10 10 -5 0
-10 -4 -10 -10z"/>
<path d="M4031 533 c7 -10 32 -40 55 -68 41 -49 104 -162 104 -187 0 -7 9 -24
20 -38 26 -33 25 -43 -4 -36 -16 4 -29 -1 -42 -16 -10 -11 -34 -27 -51 -35
-38 -15 -40 -24 -16 -64 28 -47 7 -45 -48 5 -31 28 -61 46 -75 46 -33 0 -29
-21 9 -45 18 -11 40 -37 50 -58 l17 -37 310 0 c171 0 310 4 310 9 0 16 -131
226 -158 253 -15 15 -58 44 -97 66 -38 21 -135 77 -215 123 -80 47 -154 89
-164 92 -17 7 -17 5 -5 -10z"/>
</g>
</svg>
